# xmcd
#
# Track frame offsets: 
#        150
#        14076
#        30635
#        44802
#        58425
#        73405
#        88155
#        102478
#        116562
#        132037
#        147782
#        161493
#        176312
#        190238
#
# Disc length: 2726 seconds
#
# Revision: 1
# Processed by: cddbd v1.5.2PL0 Copyright (c) Steve Scherf et al.
# Submitted via: ExactAudioCopyFreeDBPlugin 1.0
#
DISCID=d30aa40e
DTITLE=Oswald Sattler - Stella Romantica
DYEAR=2002
DGENRE=Other
TTITLE0=ELDORADO
TTITLE1=CUORE DI MONTAGNA
TTITLE2=DER MUSIKANT VOM GRÖDNERTAL
TTITLE3=MONTANGA BLU
TTITLE4=DAS WUNDER VON HEILIGEN BLUT
TTITLE5=DER LETZTE STERN IN DIESER NACHT
TTITLE6=DIE PRINZESSIN DER DOLOMITEN
TTITLE7=BEL PARADISO DEL SOL
TTITLE8=CIAO MARIA CIAO
TTITLE9=STELLA ROMANTICA
TTITLE10=AMORE MIO NAPOLI
TTITLE11=VERLIEBTER SOMMER
TTITLE12=MADONNA D'AMORE
TTITLE13=AVE MARIA
EXTD=
EXTT0=
EXTT1=
EXTT2=
EXTT3=
EXTT4=
EXTT5=
EXTT6=
EXTT7=
EXTT8=
EXTT9=
EXTT10=
EXTT11=
EXTT12=
EXTT13=
PLAYORDER=
